<?xml version="1.0" standalone="no"?>
<!DOCTYPE svg PUBLIC "-//W3C//DTD SVG 20010904//EN"
 "http://www.w3.org/TR/2001/REC-SVG-20010904/DTD/svg10.dtd">
<svg version="1.0" xmlns="http://www.w3.org/2000/svg"
 width="150.000000pt" height="150.000000pt" viewBox="0 0 150.000000 150.000000"
 preserveAspectRatio="xMidYMid meet">
<metadata>
Created by potrace 1.14, written by Peter Selinger 2001-2017
</metadata>
<g transform="translate(0.000000,150.000000) scale(0.100000,-0.100000)"
fill="#000000" stroke="none">
<path d="M618 1490 c-155 -28 -285 -98 -403 -217 -125 -125 -200 -292 -212
-468 l-6 -92 87 -2 86 -2 0 69 c0 242 187 472 436 537 76 20 210 19 288 -1
200 -51 369 -220 420 -420 29 -114 17 -265 -31 -379 -25 -59 -96 -157 -148
-203 -95 -84 -245 -142 -364 -142 l-61 0 0 -86 0 -87 89 7 c49 4 111 13 138
20 182 50 338 162 438 316 92 141 118 235 117 420 0 119 -3 145 -27 215 -81
245 -257 419 -500 494 -79 25 -267 36 -347 21z"/>
<path d="M608 1166 c-334 -118 -401 -554 -119 -766 229 -172 559 -78 668 191
97 240 -44 519 -297 585 -82 21 -174 18 -252 -10z m259 -146 c63 -28 120 -83
149 -145 33 -70 33 -180 0 -250 -85 -180 -326 -225 -470 -87 -58 56 -86 122
-86 208 0 84 12 125 54 180 82 110 229 149 353 94z"/>
<path d="M0 315 l0 -315 310 0 c171 0 311 3 311 8 1 4 3 42 4 85 l1 77 -228 0
-228 0 0 230 0 230 -85 0 -85 0 0 -315z"/>
</g>
</svg>
